<svg fill="#d3d3d3" height="24" viewBox="0 0 24 24" width="24" xmlns="http://www.w3.org/2000/svg"><g fill="#d3d3d3"><path d="m5 9c0-.55228.44772-1 1-1h4c.5523 0 1 .44772 1 1 0 .55229-.4477 1-1 1h-1v5c0 .5523-.44772 1-1 1s-1-.4477-1-1v-5h-1c-.55228 0-1-.44771-1-1z"/><path d="m13.7682 8.35982c-.2695-.32344-.7128-.44342-1.1086-.30009-.3959.14332-.6596.51925-.6596.94027v6c0 .5523.4477 1 1 1s1-.4477 1-1v-3.238l.7318.8782c.19.228.4714.3598.7682.3598s.5782-.1318.7682-.3598l.7318-.8781v3.2379c0 .5523.4477 1 1 1s1-.4477 1-1v-6c0-.42102-.2637-.79695-.6596-.94027-.3958-.14333-.8391-.02335-1.1086.30009l-1.7318 2.07818z"/><path clip-rule="evenodd" d="m23 12c0 6.0751-4.9249 11-11 11-6.07513 0-11-4.9249-11-11 0-6.07513 4.92487-11 11-11 6.0751 0 11 4.92487 11 11zm-19.99317 0c0 4.9668 4.02638 8.9932 8.99317 8.9932 4.9668 0 8.9932-4.0264 8.9932-8.9932 0-4.96679-4.0264-8.99317-8.9932-8.99317-4.96679 0-8.99317 4.02638-8.99317 8.99317z" fill="#d3d3d3"/></g></svg>